<svg width="62" height="55.00000000000001" xmlns="http://www.w3.org/2000/svg" class="logo">
 <g id="SvgjsG1007" featurekey="UqkkrJ-0" transform="matrix(1.1363636363636362,0,0,1.1363636363636362,-13.068181818181817,5.022726405750625)" fill="#393e46">
  <title xmlns="http://www.w3.org/2000/svg">02</title>
  <g xmlns="http://www.w3.org/2000/svg" data-name="Group" id="svg_1">
   <path data-name="Compound Path" d="m65.53357,-4l-53.53357,0l0,37.61255l53.53357,0l0,-37.61255zm-1.39048,36.22207l-50.75261,0l0,-34.83158l50.75261,0l0,34.83158z" id="svg_2"/>
   <rect data-name="Path" x="25.97435" y="40.91258" width="24.26392" height="1.39048" id="svg_3"/>
   <path data-name="Compound Path" d="m47.52683,10.60007l-3.33716,0l0,-2.71144a5.28383,5.28383 0 1 0 -10.56767,0l0,2.71144l-3.61525,0l-1.66858,16.40769l20.85724,0l-1.66858,-16.40769zm-12.51434,-2.71144a3.89335,3.89335 0 1 1 7.7867,0l0,2.71144l-7.7867,0l0,-2.71144zm-3.7543,4.10192l15.01721,0l1.39048,13.62673l-17.79818,0l1.39048,-13.62673l0.00001,0z" id="svg_4"/>
  </g>
 </g>

</svg>